<svg width="230" height="229" viewBox="0 0 230 229" fill="none" xmlns="http://www.w3.org/2000/svg">
<g opacity="0.16">
<mask id="mask0_82_4525" style="mask-type:luminance" maskUnits="userSpaceOnUse" x="0" y="0" width="230" height="229">
<path d="M229.574 0H0.574219V229H229.574V0Z" fill="white"/>
</mask>
<g mask="url(#mask0_82_4525)">
<path d="M187.623 64.5599C191.559 63.5051 195.04 61.1847 197.529 57.9567C200.016 54.7285 201.373 50.7717 201.391 46.6962V46.6478C201.391 41.7496 199.445 37.052 195.981 33.5885C192.518 30.125 187.82 28.1792 182.922 28.1792H182.875C178.799 28.197 174.844 29.5545 171.616 32.0424C168.389 34.5303 166.068 38.0106 165.014 41.9469C161.997 52.8761 155.478 62.5137 146.457 69.3818C137.436 76.2499 126.411 79.9692 115.073 79.9692C103.735 79.9692 92.71 76.2499 83.6889 69.3818C74.6678 62.5137 68.1488 52.8761 65.1315 41.9469C64.0762 38.0109 61.7557 34.5311 58.5279 32.0439C55.3 29.5565 51.3438 28.1996 47.2689 28.1823H47.2204C42.3223 28.1823 37.6246 30.1281 34.1611 33.5916C30.6976 37.0551 28.7518 41.7527 28.7518 46.6509V46.6993C28.7699 50.7743 30.1274 54.7304 32.6153 57.9579C35.1032 61.1853 38.5834 63.5052 42.5196 64.5599C53.4487 67.5771 63.0864 74.0962 69.9544 83.1172C76.8225 92.1382 80.5418 103.163 80.5418 114.501C80.5418 125.839 76.8225 136.864 69.9544 145.885C63.0864 154.907 53.4487 161.425 42.5196 164.443C38.5836 165.498 35.1037 167.817 32.616 171.045C30.1283 174.272 28.7709 178.228 28.7529 182.302V182.351C28.7529 187.249 30.6986 191.946 34.1622 195.41C37.6258 198.874 42.3233 200.819 47.2215 200.819H47.2699C51.345 200.802 55.3009 199.443 58.5285 196.956C61.7559 194.467 64.0758 190.988 65.1305 187.051C68.1477 176.123 74.6668 166.485 83.6878 159.617C92.7089 152.748 103.734 149.029 115.072 149.029C126.41 149.029 137.434 152.748 146.456 159.617C155.476 166.485 161.996 176.123 165.013 187.051C166.067 190.988 168.388 194.469 171.615 196.957C174.843 199.445 178.799 200.803 182.875 200.82H182.923C187.821 200.82 192.519 198.874 195.982 195.41C199.445 191.947 201.392 187.249 201.392 182.352V182.302C201.374 178.227 200.016 174.271 197.529 171.044C195.04 167.816 191.56 165.497 187.624 164.441C176.695 161.424 167.058 154.906 160.19 145.884C153.321 136.863 149.602 125.838 149.602 114.5C149.602 103.162 153.321 92.1373 160.19 83.1162C167.058 74.0951 176.695 67.5761 187.624 64.5589L187.623 64.5599Z" fill="#EAF7F2"/>
<path d="M24.7354 10.9317C25.3294 11.5226 26.0929 11.9137 26.9195 12.0505C27.7461 12.1873 28.5948 12.0632 29.3476 11.6953C36.2162 8.37822 43.9446 7.27343 51.4675 8.5332C58.9904 9.79298 65.9372 13.3553 71.3504 18.7291C72.0967 19.481 73.1051 19.9146 74.1642 19.9388C75.2233 19.963 76.2505 19.576 77.0302 18.8589C77.4177 18.4891 77.7273 18.0456 77.9409 17.5544C78.1545 17.0632 78.2678 16.5343 78.2741 15.9986C78.2803 15.463 78.1794 14.9316 77.9773 14.4356C77.7751 13.9395 77.476 13.4889 77.0972 13.1101C70.4961 6.5252 62.0093 2.15791 52.814 0.61411C43.6187 -0.929696 34.1709 0.426526 25.7813 4.49461C25.2101 4.77785 24.7146 5.1932 24.336 5.70622C23.9574 6.21923 23.7066 6.81513 23.6043 7.44446C23.502 8.0738 23.5513 8.71843 23.748 9.32492C23.9447 9.93141 24.2832 10.4823 24.7354 10.9317Z" fill="#EAF7F2"/>
<path d="M5.08134 25.1745C1.01821 33.5371 -0.349599 42.9545 1.16662 52.1275C2.68284 61.3006 7.00836 69.777 13.5464 76.3874C14.2339 77.1098 15.1598 77.5589 16.1528 77.6516C17.1457 77.7442 18.1387 77.4741 18.948 76.8913C19.4064 76.5449 19.7853 76.1041 20.059 75.5988C20.3327 75.0936 20.4949 74.5354 20.5345 73.9622C20.5741 73.3889 20.4904 72.8138 20.2889 72.2756C20.0873 71.7374 19.7728 71.2488 19.3663 70.8426C13.9651 65.4282 10.3813 58.4679 9.11166 50.9262C7.84199 43.3844 8.94925 35.6345 12.28 28.7501C12.6507 27.9965 12.7769 27.1459 12.6411 26.3172C12.5054 25.4883 12.1143 24.7225 11.5226 24.1265C11.0727 23.674 10.5215 23.3353 9.91455 23.1385C9.30759 22.9417 8.66245 22.8925 8.03266 22.9949C7.40288 23.0974 6.8066 23.3486 6.29332 23.7277C5.78005 24.1067 5.36454 24.6027 5.08134 25.1745Z" fill="#EAF7F2"/>
<path d="M200.809 217.306C193.938 220.624 186.208 221.729 178.682 220.466C171.158 219.205 164.21 215.64 158.797 210.263C158.052 209.515 157.047 209.083 155.992 209.059C154.936 209.035 153.913 209.42 153.135 210.134C152.745 210.503 152.434 210.947 152.219 211.439C152.004 211.93 151.89 212.46 151.883 212.997C151.875 213.534 151.976 214.066 152.178 214.563C152.38 215.061 152.68 215.512 153.059 215.891C159.66 222.476 168.147 226.843 177.343 228.387C186.537 229.931 195.986 228.575 204.375 224.507C204.946 224.223 205.442 223.808 205.821 223.295C206.199 222.782 206.45 222.186 206.552 221.557C206.654 220.927 206.604 220.282 206.407 219.676C206.211 219.069 205.872 218.519 205.419 218.07C204.826 217.479 204.062 217.089 203.236 216.952C202.41 216.815 201.561 216.938 200.809 217.306Z" fill="#EAF7F2"/>
<path d="M210.706 152.556C209.991 153.334 209.606 154.357 209.631 155.414C209.654 156.469 210.086 157.475 210.834 158.219C216.215 163.636 219.782 170.59 221.04 178.12C222.299 185.652 221.188 193.387 217.862 200.26C217.493 201.014 217.368 201.863 217.504 202.69C217.641 203.518 218.032 204.282 218.623 204.877C219.073 205.329 219.623 205.667 220.229 205.865C220.835 206.062 221.479 206.111 222.108 206.009C222.737 205.907 223.334 205.658 223.846 205.28C224.359 204.902 224.775 204.407 225.059 203.836C229.139 195.444 230.504 185.99 228.965 176.787C227.425 167.583 223.057 159.088 216.468 152.481C216.089 152.101 215.636 151.801 215.138 151.598C214.641 151.395 214.108 151.294 213.571 151.301C213.033 151.308 212.504 151.423 212.011 151.639C211.519 151.854 211.075 152.166 210.706 152.556Z" fill="#EAF7F2"/>
<path d="M217.869 28.755C221.192 35.6267 222.3 43.3605 221.04 50.8886C219.78 58.4168 216.213 65.3683 210.834 70.7836C210.086 71.5279 209.654 72.533 209.631 73.5882C209.606 74.6435 209.991 75.6671 210.706 76.4448C211.074 76.8341 211.519 77.1456 212.01 77.3608C212.502 77.5758 213.031 77.6904 213.568 77.6975C214.105 77.7046 214.637 77.6042 215.134 77.4021C215.631 77.2 216.083 76.9005 216.463 76.5211C223.05 69.9169 227.419 61.4254 228.961 52.2255C230.503 43.0258 229.143 33.5739 225.069 25.1824C224.785 24.6115 224.369 24.1165 223.856 23.7383C223.343 23.36 222.747 23.1096 222.118 23.0078C221.489 22.906 220.844 22.9556 220.238 23.1526C219.631 23.3496 219.081 23.6883 218.632 24.1407C218.041 24.7351 217.65 25.499 217.513 26.3259C217.377 27.153 217.501 28.0019 217.869 28.755Z" fill="#EAF7F2"/>
<path d="M158.791 18.738C164.206 13.3584 171.157 9.79235 178.686 8.53208C186.214 7.2718 193.948 8.37949 200.82 11.7022C201.573 12.071 202.422 12.1958 203.248 12.0592C204.076 11.9228 204.839 11.5317 205.434 10.9407C205.886 10.4915 206.225 9.94091 206.422 9.33463C206.619 8.72834 206.668 8.08382 206.566 7.45452C206.465 6.82521 206.215 6.22926 205.837 5.71606C205.459 5.20286 204.963 4.78721 204.392 4.50358C196 0.429117 186.549 -0.931442 177.349 0.610806C168.15 2.15306 159.658 6.52156 153.054 13.1098C152.674 13.4893 152.375 13.9408 152.173 14.4379C151.971 14.9351 151.87 15.4676 151.877 16.0042C151.884 16.5408 151.998 17.0706 152.213 17.5622C152.428 18.0539 152.739 18.4975 153.129 18.8668C153.907 19.5805 154.93 19.9656 155.986 19.9416C157.041 19.9176 158.046 19.4863 158.791 18.738Z" fill="#EAF7F2"/>
<path d="M71.3591 210.262C65.9439 215.641 58.9925 219.208 51.4643 220.468C43.936 221.728 36.2023 220.62 29.3305 217.297C28.5776 216.929 27.7285 216.805 26.9016 216.941C26.0745 217.078 25.3107 217.469 24.7162 218.06C24.2639 218.509 23.9252 219.059 23.7282 219.666C23.5312 220.272 23.4815 220.917 23.5833 221.546C23.6852 222.175 23.9356 222.771 24.3138 223.284C24.692 223.797 25.1871 224.214 25.758 224.497C34.1495 228.571 43.6013 229.932 52.8012 228.389C62.001 226.847 70.4925 222.478 77.0966 215.891C77.476 215.512 77.7757 215.059 77.9777 214.563C78.1797 214.066 78.2802 213.533 78.2731 212.996C78.2659 212.459 78.1515 211.93 77.9363 211.438C77.7211 210.947 77.4096 210.503 77.0203 210.134C76.2429 209.42 75.2191 209.034 74.1638 209.058C73.1085 209.083 72.1033 209.513 71.3591 210.262Z" fill="#EAF7F2"/>
<path d="M12.2759 200.247C8.95273 193.375 7.84472 185.641 9.10482 178.113C10.3649 170.585 13.931 163.633 19.3107 158.218C20.0589 157.473 20.4903 156.469 20.5143 155.413C20.5383 154.357 20.1531 153.334 19.4395 152.556C19.0701 152.167 18.6265 151.855 18.1349 151.64C17.6432 151.426 17.1134 151.311 16.5769 151.304C16.0403 151.297 15.5077 151.398 15.0106 151.6C14.5135 151.802 14.0619 152.102 13.6825 152.481C7.09422 159.085 2.72568 167.577 1.18344 176.777C-0.35881 185.976 1.00175 195.428 5.07621 203.819C5.35984 204.39 5.7755 204.886 6.28869 205.264C6.80189 205.642 7.39784 205.893 8.02715 205.994C8.65645 206.096 9.30099 206.046 9.90728 205.849C10.5136 205.653 11.0641 205.314 11.5134 204.861C12.1043 204.267 12.4953 203.503 12.632 202.676C12.7687 201.849 12.6442 201 12.2759 200.247Z" fill="#EAF7F2"/>
</g>
</g>
</svg>
